<?xml version="1.0" encoding="UTF-8"?>
<svg id="Layer_1" data-name="Layer 1" xmlns="http://www.w3.org/2000/svg" viewBox="0 0 459.49 426.37">
  <defs>
    <style>
      .cls-1 {
        fill: #fff;
      }

      .cls-2 {
        fill: #3662ac;
      }
    </style>
  </defs>
  <g id="Logo">
    <path id="Initiator" class="cls-2" d="M442.92,213.22C442.94,95.49,347.52.03,229.78,0,112.05-.01,16.59,95.41,16.57,213.15c-.02,99.97,68.79,183.87,161.64,206.92l.02-141.75h-43.96s.01-65.15.01-65.15h43.96s0-28.06,0-28.06c.01-72.56,32.85-106.18,104.09-106.17,13.51,0,36.81,2.65,46.34,5.3v59.05c-5.04-.53-13.78-.8-24.64-.8-34.95,0-48.46,13.23-48.47,47.66v23.04s69.63.01,69.63.01l-11.97,65.14h-57.67s-.03,146.46-.03,146.46c105.55-12.73,187.37-102.59,187.39-211.58Z"/>
    <path id="F" class="cls-1" d="M313.23,278.34l11.97-65.14h-69.63s0-23.05,0-23.05c0-34.43,13.51-47.66,48.47-47.66,10.86,0,19.6.27,24.63.8v-59.05c-9.52-2.65-32.83-5.3-46.33-5.3-71.23-.01-104.08,33.61-104.09,106.17v28.07s-43.96,0-43.96,0v65.14s43.95,0,43.95,0l-.02,141.75c16.49,4.09,33.74,6.28,51.5,6.29,8.74,0,17.36-.54,25.83-1.56l.03-146.47h57.67Z"/>
  </g>
</svg>