<?xml version="1.0" encoding="UTF-8"?>
<svg id="Layer_1" data-name="Layer 1" xmlns="http://www.w3.org/2000/svg" viewBox="0 0 459.49 426.37">
  <defs>
    <style>
      .cls-1 {
        fill: #7cc7c1;
      }

      .cls-2 {
        fill: #fff;
      }

      .cls-3 {
        fill: #2b67b0;
      }
    </style>
  </defs>
  <rect class="cls-2" x="41.37" y="42.84" width="345.19" height="337.76"/>
  <path class="cls-1" d="M398.84,426.13H27.32l-.63-.46c-13.49-2.08-24.18-12.72-26.14-26.4V27.43C2.57,13.05,13.86,2.79,28.25.57h369.66c15.1,2.38,27.91,14.2,27.91,29.83l.04,365.44c0,14.96-11.67,27.19-25.85,29.79l-1.17.5ZM131.51,95.84c0-20.14-16.33-36.47-36.47-36.47s-36.47,16.33-36.47,36.47,16.33,36.47,36.47,36.47,36.47-16.33,36.47-36.47ZM293.42,223.98c5.99,10.63,6.21,23.72,6.52,36.17v102.88s62.84,0,62.84,0v-118.18c-.64-19.19-2.18-37.62-10.12-54.94-13.58-29.61-44.48-36.76-75.05-34.19-12.94,1.65-24.73,6.34-34.88,14.29-6.51,5.1-10.94,10.86-15.88,18.53l-.3-28.33-60.34.02v202.8s62.84,0,62.84,0v-101.78c.14-20.49,3.81-43.87,25.55-49.24,14.51-3.58,31.14-1.66,38.81,11.96ZM126.48,160.22h-62.97v202.82h62.97v-202.82Z"/>
  <path class="cls-3" d="M459.13,354.27c0,6.32-5.12,11.44-11.44,11.44s-11.44-5.12-11.44-11.44,5.12-11.44,11.44-11.44,11.44,5.12,11.44,11.44ZM457.34,354.26c0-5.33-4.32-9.66-9.66-9.66s-9.66,4.32-9.66,9.66,4.32,9.66,9.66,9.66,9.66-4.32,9.66-9.66Z"/>
  <path class="cls-3" d="M443.86,348.6c.77-.16,1.86-.24,2.91-.24,1.62,0,2.67.3,3.4.96.59.52.92,1.33.92,2.23,0,1.55-.98,2.58-2.21,3v.05c.91.31,1.45,1.15,1.73,2.37.38,1.64.66,2.77.91,3.22h-1.57c-.19-.33-.45-1.34-.78-2.81-.35-1.62-.98-2.23-2.35-2.28h-1.43v5.09h-1.52v-11.59ZM445.38,353.95h1.55c1.62,0,2.65-.89,2.65-2.23,0-1.52-1.1-2.18-2.7-2.2-.73,0-1.25.07-1.5.14v4.29Z"/>
</svg>