<?xml version="1.0" encoding="UTF-8"?>
<svg id="Layer_1" data-name="Layer 1" xmlns="http://www.w3.org/2000/svg" viewBox="0 0 1133.86 169.49">
  <defs>
    <style>
      .cls-1 {
        fill: #7bc7c1;
      }
    </style>
  </defs>
  <path class="cls-1" d="M650.19,27.48l7.51-2.77-7.52-2.78c-6.69-2.48-11.97-7.76-14.44-14.45l-2.76-7.48-2.77,7.5c-2.47,6.68-7.73,11.95-14.4,14.43l-7.54,2.79,7.51,2.77c6.69,2.47,11.96,7.74,14.43,14.43l2.77,7.51,2.77-7.51c2.47-6.69,7.74-11.96,14.43-14.43h.02Z"/>
  <path class="cls-1" d="M46.6,93.31c10.51,0,19.15,5.26,23.87,13.72h20.29c-6.11-18.51-22.85-30.75-44.17-30.75C19.72,76.28,0,95.99,0,122.89s19.72,46.6,46.6,46.6c21.32,0,38.04-12.24,44.17-30.73h-20.34c-4.73,8.37-13.35,13.71-23.83,13.71-16.13,0-27.79-12.55-27.79-29.57s11.66-29.57,27.79-29.57h0Z"/>
  <path class="cls-1" d="M1089.42,113.09c-17.96,0-25.53-2.69-25.53-9.48,0-7.87,8.51-11.99,24.59-11.99,14.75,0,24.59,5.01,24.59,12.52h18.91c0-17.19-17.4-28.64-43.5-28.64-28.37,0-43.5,9.85-43.5,28.1s12.86,25.6,42.74,25.6c18.91,0,27.23,3.04,27.23,10.2,0,8.41-9.27,13.07-26.48,13.07-15.88,0-26.48-5.01-26.48-12.54h-18.91c0,17.19,18.15,28.64,45.39,28.64,29.5,0,45.39-10.2,45.39-29.18s-13.24-26.31-44.44-26.31h0Z"/>
  <path class="cls-1" d="M266.3,75.25c-25.25,0-45.71,20.69-45.71,46.22v46.22h18.58v-46.22c0-15.15,12.15-27.43,27.13-27.43s27.13,12.28,27.13,27.43v46.22h18.58v-46.22c0-25.52-20.46-46.22-45.71-46.22Z"/>
  <path class="cls-1" d="M330.59,91.25v61.45c0,8.27,6.71,14.98,14.98,14.98h58.65v-16.45h-55.72v-21.03h55.61v-16.45h-55.61v-21.03h55.72v-16.46h-58.65c-8.27,0-14.98,6.71-14.98,14.99h0Z"/>
  <path class="cls-1" d="M586.03,138.54v-35.99c0-14.45-11.82-26.26-26.26-26.26h-29.31v17.07h29.31c4.21,0,7.62,3.41,7.62,7.62v42.19c0,13.54,10.98,24.51,24.51,24.51h28.67v-18.58h-23.98c-5.84,0-10.57-4.73-10.57-10.57h0Z"/>
  <path class="cls-1" d="M583.96,52.72v-28.02h-16.89v28.02c0,13.52,11,24.51,24.51,24.51h29.31v-16.89h-29.31c-4.2,0-7.62-3.42-7.62-7.62h0Z"/>
  <path class="cls-1" d="M155.67,76.29c-25.56,0-46.33,20.73-46.33,46.33s20.76,46.32,46.33,46.32,46.34-20.73,46.34-46.32-20.76-46.33-46.34-46.33ZM155.67,149.63c-14.91,0-27-12.09-27-27s12.09-27.01,27-27.01,27.01,12.09,27.01,27.01-12.09,27-27.01,27Z"/>
  <path class="cls-1" d="M978.17,76.29c-25.56,0-46.33,20.73-46.33,46.33s20.76,46.32,46.33,46.32,46.34-20.73,46.34-46.32-20.76-46.33-46.34-46.33ZM978.17,149.63c-14.91,0-27-12.09-27-27s12.09-27.01,27-27.01,27.01,12.09,27.01,27.01-12.09,27-27.01,27Z"/>
  <path class="cls-1" d="M470.14,76.3c-.2-.02-.41-.02-.61-.02-26.89,0-46.6,19.72-46.6,46.6s19.72,46.6,46.6,46.6c21.31,0,38.03-12.24,44.16-30.74h-20.34c-4.73,8.37-13.36,13.71-23.82,13.71-16.14,0-27.81-12.56-27.81-29.56s11.67-29.59,27.81-29.59c.2,0,.4,0,.61.02v-.03h43.56v-17h-43.56v.02-.02Z"/>
  <path class="cls-1" d="M684.98,75.25c-25.25,0-45.71,20.69-45.71,46.22v46.22h18.58v-18.64h54.26v18.64h18.58v-46.22c0-25.52-20.46-46.22-45.71-46.22h0ZM657.85,130.41v-8.93c0-15.15,12.15-27.43,27.13-27.43s27.13,12.28,27.13,27.43v8.93h-54.26Z"/>
  <path class="cls-1" d="M867.85,75.25c-14.89,0-28.07,7.23-36.42,18.37-8.35-11.14-21.53-18.37-36.42-18.37-25.25,0-45.71,20.69-45.71,46.22v46.22h18.58v-46.22c0-15.15,12.15-27.43,27.13-27.43s27.12,12.27,27.13,27.41v46.24h18.58v-46.24c.01-15.14,12.16-27.4,27.13-27.4s27.13,12.28,27.13,27.43v46.22h18.58v-46.22c0-25.52-20.46-46.22-45.71-46.22h0Z"/>
</svg>