<?xml version="1.0" encoding="UTF-8"?>
<svg id="Layer_1" data-name="Layer 1" xmlns="http://www.w3.org/2000/svg" viewBox="0 0 534.49 426.94">
  <defs>
    <style>
      .cls-1 {
        fill: #7bc7c1;
      }
    </style>
  </defs>
  <path class="cls-1" d="M508.52,54.52c-13.24-4.91-23.68-15.36-28.58-28.61L470.36,0l-9.59,25.95c-4.89,13.22-15.3,23.65-28.52,28.55l-26.04,9.65,25.98,9.6c13.24,4.89,23.67,15.33,28.56,28.56l9.6,25.98,9.6-25.98c4.89-13.24,15.33-23.67,28.56-28.56l25.98-9.6-25.99-9.63h.02Z"/>
  <path class="cls-1" d="M374.63,356.53v-103.35c0-37.49-30.67-68.16-68.16-68.16H122.53v.05c-.53-.05-1.05-.05-1.57-.05C51.16,185.02,0,236.19,0,305.98s51.17,120.96,120.96,120.96c55.31,0,98.71-31.78,114.63-79.8h-52.79c-12.29,21.73-34.68,35.59-61.84,35.59-41.88,0-72.18-32.59-72.18-76.75s30.3-76.8,72.18-76.8c.52,0,1.05,0,1.57.05v-.09h189.15c10.93,0,19.78,8.86,19.78,19.78v114.13c0,35.15,28.49,63.64,63.64,63.64h74.42v-42.72h-67.45c-15.15,0-27.44-12.28-27.44-27.44h0Z"/>
  <path class="cls-1" d="M374.48,137.71v-73.56h-43.85v72.74c0,35.09,28.55,63.64,63.64,63.64h76.09v-43.04h-76.09c-10.91,0-19.78-8.87-19.78-19.78h-.01Z"/>
</svg>