<?xml version="1.0" encoding="UTF-8"?>
<svg id="Layer_1" data-name="Layer 1" xmlns="http://www.w3.org/2000/svg" viewBox="0 0 459.49 426.37">
  <defs>
    <style>
      .cls-1, .cls-2, .cls-3 {
        fill-rule: evenodd;
      }

      .cls-1, .cls-3 {
        fill: #fff;
      }

      .cls-2 {
        fill: #7cc7c1;
      }

      .cls-3 {
        stroke: #7cc7c1;
        stroke-miterlimit: 10;
        stroke-width: 10px;
      }
    </style>
  </defs>
  <path class="cls-2" d="M225.48,31.45c100.23,0,181.55,81.26,181.55,181.55s-80.74,183.48-181.55,181.55c-37.07-.7-62.41-3.39-90.02-23.88-21.07-15.7-104.32,59.49-63.16-63.63-17.57-27.9-28.02-59.95-28.43-94.05C42.76,113.18,125.19,31.45,225.48,31.45h0Z"/>
  <path class="cls-3" d="M374.11,68.06c-38.35-38.3-89.26-59.43-143.49-59.49C118.83,8.57,27.82,99.58,27.76,211.37c0,35.73,9.34,70.58,27.09,101.34l-28.78,105.08,107.53-28.2c29.73,16.21,63.05,24.7,96.91,24.69h.12c111.79,0,202.74-90.95,202.8-202.8.06-54.17-21.02-105.08-59.31-143.43h0ZM162.61,309.56c1.4.88,4.32.88,11.09.88,28.55-.06,53.18-.12,70.69-.12,81.84,0,79.69-86.16,41.45-96.91,5.6-9.92,31.12-28.6,15.35-67.13-15.65-38.12-82.78-29.48-128.72-29.48-16.99,0-14.48,12.61-14.36,32.11.12,30.94,0,114.65,0,150.85,0,7.3,2.22,8.46,4.5,9.81h0ZM197.99,277.98h41.62c17.69-.06,33.45-8.29,33.04-25.92-.29-16.58-11.33-22.07-26.68-23.58-14.59.18-31.29.18-47.99.18v49.33ZM197.99,195.32c30.82-.41,42.67,1.23,59.49-2.98,11.56-6.54,16.58-30.88.06-39.11-11.5-5.72-45.42-3.79-59.54-3.21v45.3ZM230.62,380.03h-.12c-30.24,0-59.9-8.11-85.76-23.47l-6.19-3.68-63.81,16.75,17.05-62.17-4.03-6.42c-16.87-26.86-25.79-57.95-25.74-89.67,0-92.94,75.66-168.54,168.65-168.54,45.01,0,87.33,17.57,119.15,49.45,31.87,31.82,49.39,74.2,49.39,119.21-.06,92.94-75.72,168.54-168.59,168.54h0Z"/>
  <path class="cls-1" d="M161.79,309.39c1.4.88,4.38.88,11.09.88,28.55-.06,53.18-.12,70.69-.12,81.84,0,79.74-86.16,41.45-96.91,5.6-9.92,31.12-28.6,15.35-67.13-15.65-38.12-82.78-29.48-128.72-29.48-16.99,0-14.42,12.61-14.36,32.11.12,30.94.06,114.65,0,150.85,0,7.3,2.22,8.46,4.5,9.81h0ZM197.23,277.81h41.56c17.69-.06,33.45-8.29,33.04-25.92-.29-16.58-11.33-22.07-26.68-23.58-14.54.18-31.23.18-47.93.18v49.33ZM197.23,195.14c30.76-.41,42.62,1.23,59.43-2.98,11.56-6.54,16.58-30.88.06-39.11-11.44-5.72-45.42-3.79-59.49-3.21v45.3Z"/>
</svg>